<?xml version="1.0" encoding="utf-8"?>
<!-- Generator: Adobe Illustrator 24.3.0, SVG Export Plug-In . SVG Version: 6.00 Build 0)  -->
<svg version="1.1"
	 id="svg23" sodipodi:docname="logo.svg" xmlns:inkscape="http://www.inkscape.org/namespaces/inkscape" xmlns:sodipodi="http://sodipodi.sourceforge.net/DTD/sodipodi-0.dtd" xmlns:svg="http://www.w3.org/2000/svg"
	 xmlns="http://www.w3.org/2000/svg" xmlns:xlink="http://www.w3.org/1999/xlink" x="0px" y="0px" viewBox="0 0 308.8 304.9"
	 style="enable-background:new 0 0 308.8 304.9;" xml:space="preserve">
<style type="text/css">
	.st0{fill-rule:evenodd;clip-rule:evenodd;fill:#FFFFFF;}
</style>
<sodipodi:namedview  bordercolor="#000000" borderopacity="0.25" id="namedview25" inkscape:deskcolor="#d1d1d1" inkscape:pagecheckerboard="0" inkscape:pageopacity="0.0" inkscape:showpageshadow="2" pagecolor="#ffffff">
	</sodipodi:namedview>
<path class="st0" d="M194.3,112.1c-5.1-9.2-1-8.2,12.2,2.9C196.9,107.5,192.8,106.5,194.3,112.1 M149.5,101.3
	c-1.5,8.1-12.6,9.7-16.3,2.3c-1.2-2.4-1.2-5.2-0.1-7.6l2.1,0.5c-2.3,4.3,0.6,9.7,5.6,9.8c3.4,0,6.3-2.4,6.7-5.8L149.5,101.3z
	 M107.3,111.6c14.8,8.1,33.2,10.7,55.1,7.6c-6.6-3.5-8.3-6.2-12.6-11.5c0-0.1,2-1.9,2.8-5.2c6.2,2.7,13.2,9.7,15.7,15.7
	c2.5-0.4,5.1-1,7.7-1.6C154,76,99,67.4,65.6,99.6c21.6-11.9,46.9-9.3,64.2-4.6c-0.9,2.1-1.1,4.5-0.7,6.6c-29.8-5.6-68,3.7-78,35.9
	C71.2,119.1,89.9,110.4,107.3,111.6z M173.8,84.1c4.1,0.2,10.2,2.1,18.3,5.5c-13-17.3-48.1-31.2-92.9-12.7
	c38-5.8,68.1,12.2,77.5,28.8C177.7,97.6,176.8,90.4,173.8,84.1z M109.3,96.2c-21.6,0.8-39.4,8.9-49.8,18.5
	C67.3,99.1,90.9,91.7,109.3,96.2z M183.8,123.5c1.1-10.7,0.5-21-1.7-30.9c39.5,21,48.3,43,26.4,66c4.8-19.6-13.3-27.7-54.2-24.2
	C159.7,127.7,169.5,124.1,183.8,123.5z M110.6,262.2c-20.6-46.9-4.1-101.9,39.1-129.6c-44.3,2.8-80.7,36.3-87.1,80.2
	c4.3-6.5,10.6-11.4,17.9-14C78.2,223.9,89.7,248.2,110.6,262.2z M154.3,141.1c-19.6,28-23.6,66.5-2.9,102.4
	C119.8,219.8,119.8,162.3,154.3,141.1z M123.4,171.7c-12.2,33.5-1.7,82,32,98.2C103.4,268,99.3,197.8,123.4,171.7z M99.6,55.6
	c21.2,0,37.9-6.2,55.5-17.6C173.3,49.8,191,56.1,213,55.5c24.8-0.6,39.6-8.7,59.5-21.5L272,45c-4.4,99.4-31.8,195.1-114.1,243.4
	l-2.9,1.7l-2.9-1.7c-13-7.7-25-16.7-35.8-27c-1.5-3.6-2.6-7.2-3-10.7c9.9,13.5,20.3,21.9,37.4,23.5c1.4,0.9,2.8,1.8,4.2,2.7
	c6.1-3.7,11.8-7.8,17.3-12h0c-18.1-2.6-35.7-13.4-44.2-41.1c10,18.9,25.7,29.2,42.6,29.3c-35.2-20.3-31.1-90.3-4-111.3
	c-21.7,37.3-10.3,88.2,22.9,107.5c47.4-48.3,65.8-120.3,70.4-194.4c-33.2,17.1-72.9,15.9-105-3.5c-13.2,8-39.8,15.5-55.6,15.5
	c-16.9,0-33.9-4-49.4-12c1.1,18.7,3.1,36.4,5.9,53c-0.8,1.2-1.5,2.5-2.2,3.8l-6.3,12.6C41.2,93.7,39.2,68,37.7,34
	C58.2,47.4,73.8,55.6,99.6,55.6z M48,194.6c18.5-36.9,54-62.3,94.9-68c-14.7-1.2-28.1-3.9-40.1-8.1c-17.7,2.2-33.6,11.6-44,26
	C48.4,159.1,44.5,177.2,48,194.6z"/>
</svg>
