<?xml version="1.0" encoding="utf-8"?>
<!-- Generator: Adobe Illustrator 24.3.0, SVG Export Plug-In . SVG Version: 6.00 Build 0)  -->
<svg version="1.1"
	 id="svg23" xmlns:inkscape="http://www.inkscape.org/namespaces/inkscape" xmlns:sodipodi="http://sodipodi.sourceforge.net/DTD/sodipodi-0.dtd" xmlns:svg="http://www.w3.org/2000/svg"
	 xmlns="http://www.w3.org/2000/svg" xmlns:xlink="http://www.w3.org/1999/xlink" x="0px" y="0px" viewBox="0 0 308.8 304.9"
	 style="enable-background:new 0 0 308.8 304.9;" xml:space="preserve">
<style type="text/css">
	.st0{fill-rule:evenodd;clip-rule:evenodd;fill:#FFFFFF;}
</style>
<sodipodi:namedview  bordercolor="#000000" borderopacity="0.25" id="namedview25" inkscape:deskcolor="#d1d1d1" inkscape:pagecheckerboard="0" inkscape:pageopacity="0.0" inkscape:showpageshadow="2" pagecolor="#ffffff">
	</sodipodi:namedview>
<path class="st0" d="M198.6,106.1c-5-8.9-1-8,11.9,2.8C201,101.7,197.1,100.7,198.6,106.1 M155.1,95.6c-1.5,7.8-12.2,9.4-15.8,2.2
	c-1.2-2.3-1.2-5.1-0.1-7.4l2,0.5c-2.2,4.2,0.6,9.4,5.5,9.5c3.3,0,6.1-2.3,6.5-5.6L155.1,95.6z M114.2,105.7
	c14.3,7.9,32.1,10.3,53.4,7.4c-6.4-3.4-8.1-6-12.2-11.1c0-0.1,1.9-1.9,2.7-5c6,2.6,12.8,9.4,15.3,15.3c2.4-0.4,4.9-0.9,7.5-1.5
	c-21.4-39.5-74.7-47.8-107.1-16.6c20.9-11.6,45.4-9,62.3-4.5c-0.8,2-1.1,4.3-0.7,6.4c-28.9-5.4-65.9,3.6-75.6,34.8
	C79.3,112.9,97.4,104.5,114.2,105.7z M178.7,79c4,0.2,9.9,2,17.8,5.4c-12.6-16.7-46.6-30.2-90-12.3c36.8-5.6,66,11.9,75.1,27.9
	C182.5,92.1,181.5,85.1,178.7,79z M116.2,90.7c-20.9,0.8-38.2,8.6-48.2,17.9C75.5,93.6,98.3,86.4,116.2,90.7z M188.4,117.2
	c1.1-10.4,0.5-20.3-1.7-29.9c38.2,20.4,46.8,41.7,25.6,63.9c4.6-19-12.9-26.8-52.6-23.4C165,121.3,174.5,117.8,188.4,117.2z
	 M117.4,251.6c-20-45.5-3.9-98.7,37.9-125.6c-43,2.7-78.2,35.2-84.4,77.8c4.2-6.3,10.3-11,17.4-13.6
	C86,214.5,97.2,238.1,117.4,251.6z M159.7,134.3c-19,27.1-22.9,64.5-2.8,99.2C126.4,210.5,126.3,154.8,159.7,134.3z M129.9,163.9
	c-11.8,32.4-1.7,79.5,31,95.2C110.5,257.3,106.5,189.2,129.9,163.9z M106.8,51.3c20.5,0,36.8-6,53.8-17c17.7,11.5,34.8,17.5,56.2,17
	c24-0.6,38.4-8.4,57.6-20.9l-0.5,10.7c-4.2,96.3-30.9,189.1-110.5,235.9l-2.8,1.6l-2.8-1.6c-12.6-7.4-24.2-16.2-34.7-26.2
	c-1.4-3.5-2.5-7-2.9-10.4c9.6,13.1,19.6,21.2,36.2,22.8c1.4,0.9,2.7,1.8,4.1,2.6c5.9-3.6,11.5-7.5,16.8-11.7h0
	c-17.5-2.5-34.6-13-42.8-39.8c9.7,18.3,24.9,28.3,41.3,28.4c-34.1-19.7-30.2-87.6-3.9-107.8c-21,36.1-10,85.5,22.2,104.2
	c46-46.8,63.8-116.5,68.2-188.4c-32.1,16.6-70.6,15.4-101.8-3.4c-12.8,7.7-38.6,15-53.9,15c-16.4,0-32.8-3.9-47.9-11.6
	c1.1,18.1,3,35.3,5.8,51.4c-0.8,1.2-1.5,2.4-2.1,3.6l-6.1,12.2c-6.1-29.8-8.1-54.7-9.5-87.6C66.7,43.4,81.8,51.4,106.8,51.3z
	 M56.8,186.1c18-35.7,52.3-60.4,92-65.9c-14.2-1.1-27.2-3.7-38.9-7.8c-17.1,2.1-32.6,11.2-42.7,25.2
	C57.1,151.7,53.3,169.3,56.8,186.1z"/>
</svg>
